<?xml version="1.0" encoding="utf-8"?>
<!-- Generator: Adobe Illustrator 16.0.0, SVG Export Plug-In . SVG Version: 6.00 Build 0)  -->
<!DOCTYPE svg PUBLIC "-//W3C//DTD SVG 1.0//EN" "http://www.w3.org/TR/2001/REC-SVG-20010904/DTD/svg10.dtd">
<svg version="1.0" id="Layer_1" xmlns="http://www.w3.org/2000/svg" xmlns:xlink="http://www.w3.org/1999/xlink" x="0px" y="0px"
	 width="100px" height="100px" viewBox="0 0 100 100" enable-background="new 0 0 100 100" xml:space="preserve">
<path fill="#6C342C" stroke="#3E2426" stroke-width="1.5" stroke-linecap="round" stroke-linejoin="round" stroke-miterlimit="10" d="
	M74.857,50.585c0,1.919-11.385,3.476-25.436,3.476c-14.048,0-25.437-1.557-25.437-3.476c0-1.923,11.389-3.479,25.437-3.479
	C63.473,47.105,74.857,48.662,74.857,50.585z"/>
<path fill="#57261F" d="M49.421,47.105c-1.275,0-2.526,0.014-3.75,0.038c12.272,0.248,21.686,1.693,21.686,3.441
	c0,1.745-9.414,3.189-21.686,3.438c1.224,0.024,2.475,0.038,3.75,0.038c14.051,0,25.436-1.557,25.436-3.476
	C74.857,48.662,63.473,47.105,49.421,47.105z"/>
<path fill="#FCE9BB" stroke="#3E2426" stroke-width="1.5" stroke-linecap="round" stroke-linejoin="round" stroke-miterlimit="10" d="
	M88.842,78.407C88.842,84.809,71.195,90,49.421,90C27.651,90,10,84.809,10,78.407c0,3.842,17.651,6.956,39.422,6.956
	C71.195,85.363,88.842,82.249,88.842,78.407z"/>
<path fill="#FCE9BB" stroke="#3E2426" stroke-width="1.5" stroke-linecap="round" stroke-linejoin="round" stroke-miterlimit="10" d="
	M74.852,50.581c-0.004,4.268-0.836,8.54-2.494,12.547c-1.6,3.865-3.963,7.497-7.104,10.643c-0.605,0.603-1.092,1.326-1.424,2.129
	c-0.32,0.771-0.5,1.619-0.5,2.508c-4.285,1.778-8.98,2.771-13.913,2.771h0.004c-4.932,0-9.628-0.992-13.913-2.771
	c0-0.889-0.18-1.736-0.499-2.508c-0.332-0.803-0.818-1.526-1.421-2.129c-3.144-3.146-5.506-6.777-7.105-10.643
	c-1.657-4.007-2.493-8.279-2.496-12.547l-0.002,0.004c0,1.919,11.389,3.476,25.437,3.476c14.051,0,25.436-1.557,25.436-3.476
	L74.852,50.581z"/>
<path fill="#DACAA4" d="M23.987,50.581l-0.002,0.004c0,0.003,0.003,0.008,0.003,0.011C23.988,50.591,23.987,50.587,23.987,50.581z"
	/>
<path fill="#DACAA4" d="M74.852,50.581c0,0.016-0.002,0.031-0.002,0.048c0.002-0.015,0.008-0.029,0.008-0.044L74.852,50.581z"/>
<path fill="#DACAA4" d="M68.514,52.88c-0.25,3.844-1.115,7.659-2.611,11.272c-1.729,4.182-4.285,8.11-7.684,11.513
	c-0.654,0.652-1.18,1.436-1.541,2.304c-0.328,0.794-0.514,1.663-0.533,2.574c2.494-0.471,4.9-1.188,7.186-2.136
	c0-0.889,0.18-1.736,0.5-2.508c0.332-0.803,0.818-1.526,1.424-2.129c3.141-3.146,5.504-6.777,7.104-10.643
	c1.652-3.992,2.482-8.247,2.492-12.499C74.771,51.491,72.395,52.278,68.514,52.88z"/>
<path fill="#FCE9BB" stroke="#3E2426" stroke-width="1.5" stroke-linecap="round" stroke-linejoin="round" stroke-miterlimit="10" d="
	M74.439,55.5c-0.225,1.468-0.518,2.925-0.941,4.358h3.75c0-2.563,2.076-4.641,4.637-4.641s4.637,2.077,4.637,4.641
	c0,1.254-0.252,2.449-0.709,3.541c-0.469,1.13-1.154,2.15-2.01,3.005v0.017c-0.854,0.852-1.875,1.537-3.01,2.005
	c-1.094,0.452-2.289,0.707-3.545,0.707l0.002-0.004c-3.383,0-6.596,0.672-9.545,1.865c-0.76,0.957-1.57,1.891-2.451,2.776
	c-0.35,0.348-0.646,0.744-0.906,1.164c4.016-1.495,8.355-2.325,12.902-2.325h-0.002c1.729,0,3.373-0.345,4.873-0.965
	c1.563-0.644,2.967-1.588,4.143-2.764v-0.024c1.174-1.175,2.117-2.573,2.764-4.127C89.652,63.228,90,61.584,90,59.858l0,0
	c0-4.485-3.633-8.119-8.115-8.119v0.003C78.83,51.742,76.129,53.223,74.439,55.5z"/>
<path fill="#F4F4F4" stroke="#3E2426" stroke-width="1.5" stroke-linecap="round" stroke-linejoin="round" stroke-miterlimit="10" d="
	M73.189,72.857c-3.078,0.341-6.041,1.033-8.842,2.077c0,0-0.186,0.162-0.518,0.965c-0.32,0.771-0.5,1.619-0.5,2.508
	c-4.285,1.778-8.979,2.771-13.911,2.771c-4.93,0-9.624-0.992-13.913-2.771c0-0.889-0.18-1.736-0.497-2.508
	c-0.332-0.803-0.818-1.526-1.423-2.129c-0.517-0.521-0.983-1.071-1.459-1.616C19.028,73.285,10,75.658,10,78.407
	c0,3.842,17.651,6.956,39.422,6.956c21.774,0,39.42-3.114,39.42-6.956C88.842,76.141,82.697,74.129,73.189,72.857z"/>
<path fill="#D3D4D5" d="M73.189,72.857c-1.23,0.136-2.438,0.345-3.629,0.594c7.266,1.263,11.781,3.015,11.781,4.956
	c0,3.618-15.656,6.591-35.67,6.924c1.234,0.021,2.484,0.032,3.75,0.032c21.774,0,39.42-3.114,39.42-6.956
	C88.842,76.141,82.697,74.129,73.189,72.857z"/>
<path fill="none" stroke="#3E2426" stroke-width="1.5" stroke-linecap="round" stroke-linejoin="round" stroke-miterlimit="10" d="
	M56.471,35.884c3.904,3.896,3.904,10.218,0,14.115C60.375,46.103,60.375,39.781,56.471,35.884z"/>
<path fill="none" stroke="#3E2426" stroke-width="1.5" stroke-linecap="round" stroke-linejoin="round" stroke-miterlimit="10" d="
	M51.117,10c-7.797,7.797-7.797,20.441,0,28.237h0.002c3.25,3.25,3.25,8.513,0,11.762c3.25-3.249,3.25-8.513,0-11.762h-0.002
	C43.32,30.441,43.32,17.797,51.117,10z"/>
<path fill="none" stroke="#3E2426" stroke-width="1.5" stroke-linecap="round" stroke-linejoin="round" stroke-miterlimit="10" d="
	M42.353,42.94c0-7.797,6.32-14.116,14.118-14.116C48.673,28.825,42.353,35.143,42.353,42.94z"/>
<path fill="none" stroke="#3E2426" stroke-width="1.5" stroke-linecap="round" stroke-linejoin="round" stroke-miterlimit="10" d="
	M40.705,31.178c-1.949-4.706-1.805-9.757,0-14.119C38.9,21.421,38.755,26.472,40.705,31.178z"/>
<path fill="#DACAA4" d="M74.316,83.8c-5.861,3.273-16.887,5.62-29.894,6.104C46.06,89.965,47.726,90,49.421,90
	c21.774,0,39.42-5.191,39.42-11.593C88.842,80.583,83.18,82.524,74.316,83.8z"/>
<path fill="none" stroke="#3E2426" stroke-width="1.5" stroke-linecap="round" stroke-linejoin="round" stroke-miterlimit="10" d="
	M74.857,50.585c0,1.919-11.385,3.476-25.436,3.476c-14.048,0-25.437-1.557-25.437-3.476c0-1.923,11.389-3.479,25.437-3.479
	C63.473,47.105,74.857,48.662,74.857,50.585z"/>
<path fill="none" stroke="#3E2426" stroke-width="1.5" stroke-linecap="round" stroke-linejoin="round" stroke-miterlimit="10" d="
	M88.842,78.407C88.842,84.809,71.195,90,49.421,90C27.651,90,10,84.809,10,78.407c0,3.842,17.651,6.956,39.422,6.956
	C71.195,85.363,88.842,82.249,88.842,78.407z"/>
<path fill="none" stroke="#3E2426" stroke-width="1.5" stroke-linecap="round" stroke-linejoin="round" stroke-miterlimit="10" d="
	M74.852,50.581c-0.004,4.268-0.836,8.54-2.494,12.547c-1.6,3.865-3.963,7.497-7.104,10.643c-0.605,0.603-1.092,1.326-1.424,2.129
	c-0.32,0.771-0.5,1.619-0.5,2.508c-4.285,1.778-8.98,2.771-13.913,2.771h0.004c-4.932,0-9.628-0.992-13.913-2.771
	c0-0.889-0.18-1.736-0.499-2.508c-0.332-0.803-0.818-1.526-1.421-2.129c-3.144-3.146-5.506-6.777-7.105-10.643
	c-1.657-4.007-2.493-8.279-2.496-12.547l-0.002,0.004c0,1.919,11.389,3.476,25.437,3.476c14.051,0,25.436-1.557,25.436-3.476
	L74.852,50.581z"/>
<path fill="none" stroke="#3E2426" stroke-width="1.5" stroke-linecap="round" stroke-linejoin="round" stroke-miterlimit="10" d="
	M73.189,72.857c-3.078,0.341-6.041,1.033-8.842,2.077c0,0-0.186,0.162-0.518,0.965c-0.32,0.771-0.5,1.619-0.5,2.508
	c-4.285,1.778-8.979,2.771-13.911,2.771c-4.93,0-9.624-0.992-13.913-2.771c0-0.889-0.18-1.736-0.497-2.508
	c-0.332-0.803-0.818-1.526-1.423-2.129c-0.517-0.521-0.983-1.071-1.459-1.616C19.028,73.285,10,75.658,10,78.407
	c0,3.842,17.651,6.956,39.422,6.956c21.774,0,39.42-3.114,39.42-6.956C88.842,76.141,82.697,74.129,73.189,72.857z"/>
</svg>
